HIERARCHY
ROOT Hips
{
    OFFSET   0.000000   0.000000   0.000000
    CHANNELS 6 Xposition Yposition Zposition Zrotation Xrotation Yrotation
    JOINT Chest
    {
        OFFSET   0.000000   8.007230   0.000000
        CHANNELS 3 Zrotation Xrotation Yrotation
        JOINT Chest2
        {
            OFFSET   0.000000  22.077100   0.000000
            CHANNELS 3 Zrotation Xrotation Yrotation
            JOINT Neck
            {
                OFFSET   0.000000  23.255100   0.000000
                CHANNELS 3 Zrotation Xrotation Yrotation
                JOINT Head
                {
                    OFFSET   0.000000  14.370100   1.956600
                    CHANNELS 3 Zrotation Xrotation Yrotation
                    End Site
                    {
                        OFFSET   0.000000  19.566000   0.000000
                    }
                }
            }
            JOINT LeftCollar
            {
                OFFSET   3.911900  19.017000  -0.467063
                CHANNELS 3 Zrotation Xrotation Yrotation
                JOINT LeftShoulder
                {
                    OFFSET  10.383700   0.000000   0.000000
                    CHANNELS 3 Zrotation Xrotation Yrotation
                    JOINT LeftElbow
                    {
                        OFFSET  26.662100   0.001193   0.000980
                        CHANNELS 3 Zrotation Xrotation Yrotation
                        JOINT LeftWrist
                        {
                            OFFSET  28.869000  -0.000059  -0.000082
                            CHANNELS 3 Zrotation Xrotation Yrotation
                            JOINT LeftFinger0
                            {
                                OFFSET   2.044650  -2.323450   3.252850
                                CHANNELS 3 Zrotation Xrotation Yrotation
                                JOINT LeftFinger01
                                {
                                    OFFSET   3.088130   0.000000   0.000000
                                    CHANNELS 3 Zrotation Xrotation Yrotation
                                    JOINT LeftFinger02
                                    {
                                        OFFSET   2.639460   0.000000   0.000000
                                        CHANNELS 3 Zrotation Xrotation Yrotation
                                        End Site
                                        {
                                            OFFSET   2.582190   0.000000   0.000000
                                        }
                                    }
                                }
                            }
                            JOINT LeftFinger1
                            {
                                OFFSET   8.364480   0.000000   3.252850
                                CHANNELS 3 Zrotation Xrotation Yrotation
                                JOINT LeftFinger11
                                {
                                    OFFSET   4.646930   0.000000   0.000000
                                    CHANNELS 3 Zrotation Xrotation Yrotation
                                    JOINT LeftFinger12
                                    {
                                        OFFSET   2.323470   0.000000   0.000000
                                        CHANNELS 3 Zrotation Xrotation Yrotation
                                        End Site
                                        {
                                            OFFSET   2.273050   0.000000   0.000000
                                        }
                                    }
                                }
                            }
                            JOINT LeftFinger2
                            {
                                OFFSET   8.364490   0.000016   1.078090
                                CHANNELS 3 Zrotation Xrotation Yrotation
                                JOINT LeftFinger21
                                {
                                    OFFSET   5.111610   0.000000   0.000000
                                    CHANNELS 3 Zrotation Xrotation Yrotation
                                    JOINT LeftFinger22
                                    {
                                        OFFSET   2.788150   0.000016   0.000000
                                        CHANNELS 3 Zrotation Xrotation Yrotation
                                        End Site
                                        {
                                            OFFSET   2.727660   0.000000   0.000000
                                        }
                                    }
                                }
                            }
                            JOINT LeftFinger3
                            {
                                OFFSET   7.899780   0.000015  -1.078090
                                CHANNELS 3 Zrotation Xrotation Yrotation
                                JOINT LeftFinger31
                                {
                                    OFFSET   4.646930   0.000000   0.000000
                                    CHANNELS 3 Zrotation Xrotation Yrotation
                                    JOINT LeftFinger32
                                    {
                                        OFFSET   2.323470   0.000000   0.000000
                                        CHANNELS 3 Zrotation Xrotation Yrotation
                                        End Site
                                        {
                                            OFFSET   2.273050   0.000000   0.000000
                                        }
                                    }
                                }
                            }
                            JOINT LeftFinger4
                            {
                                OFFSET   7.435090   0.000000  -3.252850
                                CHANNELS 3 Zrotation Xrotation Yrotation
                                JOINT LeftFinger41
                                {
                                    OFFSET   3.717550   0.000000   0.000000
                                    CHANNELS 3 Zrotation Xrotation Yrotation
                                    JOINT LeftFinger42
                                    {
                                        OFFSET   1.858770   0.000000   0.000000
                                        CHANNELS 3 Zrotation Xrotation Yrotation
                                        End Site
                                        {
                                            OFFSET   1.818440   0.000000   0.000000
                                        }
                                    }
                                }
                            }
                        }
                    }
                }
            }
            JOINT RightCollar
            {
                OFFSET  -3.911910  19.017000  -0.467062
                CHANNELS 3 Zrotation Xrotation Yrotation
                JOINT RightShoulder
                {
                    OFFSET -10.383700   0.000014   0.000000
                    CHANNELS 3 Zrotation Xrotation Yrotation
                    JOINT RightElbow
                    {
                        OFFSET -26.662100   0.001225   0.001091
                        CHANNELS 3 Zrotation Xrotation Yrotation
                        JOINT RightWrist
                        {
                            OFFSET -28.869000  -0.000020  -0.000085
                            CHANNELS 3 Zrotation Xrotation Yrotation
                            JOINT RightFinger0
                            {
                                OFFSET  -2.044650  -2.323490   3.252850
                                CHANNELS 3 Zrotation Xrotation Yrotation
                                JOINT RightFinger01
                                {
                                    OFFSET  -3.088130   0.000000   0.000000
                                    CHANNELS 3 Zrotation Xrotation Yrotation
                                    JOINT RightFinger02
                                    {
                                        OFFSET  -2.639460   0.000000   0.000000
                                        CHANNELS 3 Zrotation Xrotation Yrotation
                                        End Site
                                        {
                                            OFFSET  -2.582190   0.000000   0.000000
                                        }
                                    }
                                }
                            }
                            JOINT RightFinger1
                            {
                                OFFSET  -8.364480   0.000000   3.252850
                                CHANNELS 3 Zrotation Xrotation Yrotation
                                JOINT RightFinger11
                                {
                                    OFFSET  -4.646930   0.000000   0.000000
                                    CHANNELS 3 Zrotation Xrotation Yrotation
                                    JOINT RightFinger12
                                    {
                                        OFFSET  -2.323470   0.000000   0.000000
                                        CHANNELS 3 Zrotation Xrotation Yrotation
                                        End Site
                                        {
                                            OFFSET  -2.273050   0.000000   0.000000
                                        }
                                    }
                                }
                            }
                            JOINT RightFinger2
                            {
                                OFFSET  -8.364480   0.000000   1.078090
                                CHANNELS 3 Zrotation Xrotation Yrotation
                                JOINT RightFinger21
                                {
                                    OFFSET  -5.111620   0.000000   0.000000
                                    CHANNELS 3 Zrotation Xrotation Yrotation
                                    JOINT RightFinger22
                                    {
                                        OFFSET  -2.788160   0.000000   0.000000
                                        CHANNELS 3 Zrotation Xrotation Yrotation
                                        End Site
                                        {
                                            OFFSET  -2.727660   0.000000   0.000000
                                        }
                                    }
                                }
                            }
                            JOINT RightFinger3
                            {
                                OFFSET  -7.899780   0.000000  -1.078090
                                CHANNELS 3 Zrotation Xrotation Yrotation
                                JOINT RightFinger31
                                {
                                    OFFSET  -4.646930   0.000000   0.000000
                                    CHANNELS 3 Zrotation Xrotation Yrotation
                                    JOINT RightFinger32
                                    {
                                        OFFSET  -2.323470   0.000000   0.000000
                                        CHANNELS 3 Zrotation Xrotation Yrotation
                                        End Site
                                        {
                                            OFFSET  -2.273050   0.000000   0.000000
                                        }
                                    }
                                }
                            }
                            JOINT RightFinger4
                            {
                                OFFSET  -7.435090   0.000000  -3.252850
                                CHANNELS 3 Zrotation Xrotation Yrotation
                                JOINT RightFinger41
                                {
                                    OFFSET  -3.717550   0.000000   0.000000
                                    CHANNELS 3 Zrotation Xrotation Yrotation
                                    JOINT RightFinger42
                                    {
                                        OFFSET  -1.858760   0.000000   0.000000
                                        CHANNELS 3 Zrotation Xrotation Yrotation
                                        End Site
                                        {
                                            OFFSET  -1.818440   0.000000   0.000000
                                        }
                                    }
                                }
                            }
                        }
                    }
                }
            }
        }
    }
    JOINT LeftHip
    {
        OFFSET   9.783030   0.000000   0.000000
        CHANNELS 3 Zrotation Xrotation Yrotation
        JOINT LeftKnee
        {
            OFFSET   0.000063 -41.789100   0.000608
            CHANNELS 3 Zrotation Xrotation Yrotation
            JOINT LeftAnkle
            {
                OFFSET   0.000048 -41.133200  -0.000184
                CHANNELS 3 Zrotation Xrotation Yrotation
                JOINT LeftToe
                {
                    OFFSET   0.000000  -6.358960  14.674500
                    CHANNELS 3 Zrotation Xrotation Yrotation
                    End Site
                    {
                        OFFSET   0.000000   0.000000   3.913200
                    }
                }
            }
        }
    }
    JOINT RightHip
    {
        OFFSET  -9.783030   0.000000   0.000000
        CHANNELS 3 Zrotation Xrotation Yrotation
        JOINT RightKnee
        {
            OFFSET   0.000071 -41.789100   0.001239
            CHANNELS 3 Zrotation Xrotation Yrotation
            JOINT RightAnkle
            {
                OFFSET   0.000037 -41.133200  -0.000166
                CHANNELS 3 Zrotation Xrotation Yrotation
                JOINT RightToe
                {
                    OFFSET   0.000000  -6.358960  14.674500
                    CHANNELS 3 Zrotation Xrotation Yrotation
                    End Site
                    {
                        OFFSET   0.000000   0.000000   3.913200
                    }
                }
            }
        }
    }
}
MOTION
Frames: 4
Frame Time:   0.016667
 -3.167770  89.302600   3.081820  -5.518370 -16.618000  -7.523050   2.405080  10.098400  -2.092190   5.315670  20.090000  -4.732820   6.944370   0.780488  -0.098540  11.409800   1.506370   5.357470  -5.493140  -4.054150   4.705650 -76.616800   2.961690 -16.737000  12.668300 -32.556400 -45.153600  95.568600 -71.165600  75.901800  39.144700  17.600700 -54.944200 -17.956400  -0.009022  -0.002464  -3.978180   0.001310  -0.002858 -16.654400   0.804539  -2.687040 -13.641900   0.001543  -0.004107  -9.549300   0.002267  -0.008132 -21.731900  -3.958730   9.825480 -22.072400   0.003085  -0.004632 -14.700200   0.003482   0.004622 -18.789800  -3.444700  10.015500 -19.091700   0.003814  -0.013816 -12.715100   0.004093  -0.004815 -23.730700  -5.059790  11.344800 -36.350700   0.002903  -0.001125 -24.209500   0.006224  -0.000389   8.545410  -3.626270  10.706800  69.689100  -7.398620  15.667800 -19.169600 -39.419200  32.819100 -79.390300 -74.744300 -59.050700 -45.973500  27.321000  59.264500   1.953400   0.001272  -0.000000  -4.023280  -0.009363   0.011940  13.010600   0.900541   3.891430  10.670100   0.005562   0.003417   7.469080   0.004862   0.003563  18.072200  -1.250170  -3.825340  18.113900   0.001045   0.000302  12.063900   0.006471   0.003760  19.449700  -3.750670 -10.495000  19.794300   0.003982   0.010650  13.183000   0.007171   0.003999  28.876800  -5.431220  -9.738600  44.009700   0.000527  -0.000149  29.310400   0.010391  -0.007894   3.961470  21.798300   3.011370   1.984760   0.449892   7.112370  -3.265120  -5.303840   2.721390  -0.000000   0.000000   0.000000   6.430880  19.514900  -5.794660   0.065707   2.137770  -5.216070  -2.385300  -5.762380   2.746910  -0.000000   0.000000   0.000000
 -3.200020  89.299500   3.099590  -5.525740 -16.580600  -7.586560   2.392320  10.074400  -2.073550   5.284510  20.043400  -4.690640   6.948380   0.776436  -0.098524  11.413500   1.502610   5.351950  -5.524280  -4.038090   4.641460 -76.667000   2.796060 -16.682300  12.585400 -32.588900 -45.145200  95.785200 -71.242900  76.230900  39.154500  17.668800 -55.015000 -18.072800  -0.009142  -0.002468  -4.036390   0.001308  -0.002881 -16.721700   0.795486  -2.642350 -13.696400   0.001527  -0.004131  -9.587510   0.002235  -0.008119 -21.752500  -3.960150   9.820900 -22.092900   0.003066  -0.004631 -14.713900   0.003446   0.004721 -18.821200  -3.448830  10.010600 -19.123400   0.003823  -0.013874 -12.736200   0.004072  -0.004812 -23.751400  -5.099690  11.418800 -36.390900   0.003099  -0.001121 -24.236400   0.006210  -0.000384   8.538750  -3.595910  10.694300  69.681600  -7.487390  15.675000 -19.173500 -39.441600  32.705100 -79.366500 -74.599200 -59.184200 -45.872800  27.144600  59.101900   2.159720   0.001219  -0.000000  -3.920130  -0.009499   0.012036  13.012600   0.900924   3.892730  10.671700   0.005634   0.003465   7.470220   0.004932   0.003548  18.077400  -1.254990  -3.839120  18.119500   0.001076   0.000250  12.067600   0.006542   0.003739  19.461300  -3.758980 -10.511200  19.807100   0.003996   0.010636  13.191600   0.007464   0.004057  28.878400  -5.440390  -9.754140  44.015600   0.000550  -0.000180  29.314300   0.010400  -0.008090   3.964090  21.772200   3.010090   1.995600   0.487641   7.164330  -3.282800  -5.336980   2.737210  -0.000000   0.000000   0.000000   6.430940  19.500600  -5.798180   0.080058   2.120330  -5.178880  -2.386650  -5.761590   2.789470  -0.000000   0.000000  -0.000000
 -3.230930  89.297100   3.116080  -5.535890 -16.543100  -7.649560   2.378920  10.052900  -2.053480   5.251960  20.002100  -4.645610   6.952380   0.770082  -0.098518  11.417500   1.496700   5.346430  -5.559780  -4.029350   4.563850 -76.704100   2.628300 -16.600000  12.492200 -32.597800 -45.146800  95.834300 -71.312400  76.411100  39.160900  17.780900 -55.149000 -18.177500  -0.009262  -0.002476  -4.088750   0.001305  -0.002907 -16.788600   0.792377  -2.624010 -13.750900   0.001512  -0.004156  -9.625670   0.002203  -0.008109 -21.787800  -3.963650   9.811190 -22.128200   0.003052  -0.004631 -14.737400   0.003410   0.004819 -18.863700  -3.453960  10.000400 -19.166000   0.003833  -0.013933 -12.764500   0.004054  -0.004808 -23.809400  -5.142510  11.483500 -36.490100   0.003301  -0.001118 -24.302500   0.006197  -0.000379   8.531780  -3.566350  10.685600  69.672200  -7.522800  15.690600 -19.200500 -39.486700  32.550800 -79.490100 -74.451600 -59.460700 -45.714700  26.941600  58.927900   2.375310   0.001164  -0.000000  -3.812350  -0.009638   0.012146  13.026400   0.903608   3.899520  10.683100   0.005707   0.003514   7.478190   0.005003   0.003533  18.110600  -1.262080  -3.853020  18.153000   0.001110   0.000200  12.089900   0.006613   0.003714  19.508100  -3.779210 -10.539600  19.856700   0.004011   0.010625  13.224600   0.007759   0.004116  28.903600  -5.461360  -9.780980  44.056800   0.000574  -0.000213  29.341800   0.010415  -0.008284   3.968310  21.746800   3.009150   2.004970   0.522948   7.213490  -3.299630  -5.369960   2.752830  -0.000000   0.000000   0.000000   6.431320  19.483800  -5.799320   0.093948   2.104470  -5.134930  -2.390940  -5.758910   2.823140  -0.000000   0.000000   0.000000
 -3.261840  89.295100   3.130890  -5.549200 -16.506000  -7.714080   2.366710  10.035200  -2.035830   5.222670  19.968400  -4.606280   6.949150   0.764929  -0.098546  11.413800   1.491900   5.356900  -5.605140  -4.031890   4.470620 -76.679300   2.463040 -16.468700  12.390900 -32.546000 -45.183700  95.650900 -71.361900  76.348600  39.136900  17.889700 -55.329400 -18.258700  -0.009399  -0.002485  -4.129330   0.001288  -0.002933 -16.867000   0.805105  -2.659680 -13.815500   0.001505  -0.004177  -9.670880   0.002163  -0.008098 -21.848300  -3.969420   9.795750 -22.188700   0.003042  -0.004635 -14.777700   0.003379   0.004901 -18.924100  -3.460530   9.985270 -19.226600   0.003851  -0.014005 -12.804900   0.004035  -0.004806 -23.904400  -5.188960  11.533700 -36.642700   0.003519  -0.001120 -24.404100   0.006179  -0.000376   8.518870  -3.536820  10.686700  69.667000  -7.500670  15.718900 -19.251400 -39.588600  32.363200 -79.661600 -74.371500 -59.779400 -45.521400  26.751400  58.826000   2.537640   0.001110   0.000000  -3.731180  -0.009764   0.012248  13.096600   0.909610   3.906740  10.740800   0.005792   0.003564   7.518600   0.005074   0.003516  18.194100  -1.278340  -3.878230  18.237400   0.001144   0.000144  12.146100   0.006680   0.003688  19.609700  -3.813090 -10.572500  19.962600   0.004028   0.010617  13.295100   0.008053   0.004163  28.980600  -5.499400  -9.810640  44.178500   0.000596  -0.000256  29.422900   0.010435  -0.008474   3.980630  21.727700   3.010630   2.009240   0.546633   7.254800  -3.316850  -5.397990   2.771650   0.000000   0.000000  -0.000000   6.437020  19.468400  -5.792870   0.104501   2.083760  -5.103830  -2.398100  -5.750710   2.864360  -0.000000   0.000000   0.000000
